inDegrees=yes
name=ik_S51_A13_T02
DataType=double
version=3
OpenSimVersion=4.3-2021-08-27-4bc7ad9
endheader
time	pelvis_tilt	pelvis_list	pelvis_rotation	pelvis_tx	pelvis_ty	pelvis_tz	hip_flexion_r	hip_adduction_r	hip_rotation_r	knee_angle_r	knee_angle_r_beta	ankle_angle_r	subtalar_angle_r	mtp_angle_r	hip_flexion_l	hip_adduction_l	hip_rotation_l	knee_angle_l	knee_angle_l_beta	ankle_angle_l	subtalar_angle_l	mtp_angle_l	lumbar_extension	lumbar_bending	lumbar_rotation	arm_flex_r	arm_add_r	arm_rot_r	elbow_flex_r	pro_sup_r	wrist_flex_r	wrist_dev_r	arm_flex_l	arm_add_l	arm_rot_l	elbow_flex_l	pro_sup_l	wrist_flex_l	wrist_dev_l
9.959999999999877	-20.63487786647428	-31.83664744272575	-9.987501851887677	0	0.9399999999999999	0	45.57308964899748	-10.01612291742898	-9.627853898082781	54.81735151087905	0.9567432710879276	0	0	0	45.57308964899748	-10.01612291742898	-9.627853898082781	54.81735151087905	0.9567432710879276	0	0	0	21.96987812876853	35.5336836174888	23.399150367143	63.07964066302803	-17.00762013822324	8.284056205057961	121.8092480828891	-9.985562834302733	0	0	70.04612061205221	4.795601771470855	-7.282487048214796	46.01308425885254	63.26986436978208	0	0
9.979999999999876	-20.63387283478241	-31.85957253451575	-9.995282576613272	0	0.9399999999999999	0	45.57289672665315	-10.01610402031865	-9.628133991099764	54.81739283598867	0.9567439923471542	0	0	0	45.57289672665315	-10.01610402031865	-9.628133991099764	54.81739283598867	0.9567439923471542	0	0	0	21.96092514069681	35.49612724087036	23.39593653753025	62.92586202234321	-16.55582699484849	8.520305371982401	121.412826313616	-9.986502924694994	0	0	70.33722016771661	4.88578229419952	-8.514064683637558	45.416785360802	62.74833424871227	0	0
9.999999999999876	-20.38344599046112	-31.41541325063663	-9.592383247259601	0	0.9399999999999999	0	45.56005608959927	-10.01507840059737	-9.644787787380473	54.82032778717913	0.9567952169088131	0	0	0	45.56005608959927	-10.01507840059737	-9.644787787380473	54.82032778717913	0.9567952169088131	0	0	0	21.8517963469512	34.92696651451266	23.32712874583658	62.30840181525807	-15.69279070840757	9.775346330496346	120.9398774453548	-9.986556149624924	0	0	70.65910136438016	4.968720506589272	-9.614560398715296	44.18028403180447	63.78339679587906	0	0
10.01999999999988	-20.30046208637242	-31.39070617674483	-9.417506084429585	0	0.9399999999999999	0	45.55977607548317	-10.01505201190514	-9.645186287001657	54.82038784243732	0.9567962650708016	0	0	0	45.55977607548317	-10.01505201190514	-9.645186287001657	54.82038784243732	0.9567962650708016	0	0	0	21.85471131415466	34.87619465380038	23.22413113786283	61.91958472431963	-14.75948771467794	10.4120731621895	119.647021803287	-9.987567318736529	0	0	70.64871150811429	4.726466445948391	-9.845888050848247	44.06017759713785	64.14871452082492	0	0
10.03999999999987	-20.24255216028616	-31.36354376581117	-9.32490048307991	0	0.9399999999999999	0	45.55936689416599	-10.01501352008635	-9.645768066745587	54.82047563604221	0.9567977973582692	0	0	0	45.55936689416599	-10.01501352008635	-9.645768066745587	54.82047563604221	0.9567977973582692	0	0	0	21.85798136099125	34.83991560231058	23.16758192764649	61.94529346935416	-14.72121298249309	10.17071114046007	119.5439348848886	-9.987783911343127	0	0	70.49975142119149	4.496907281752541	-10.0579641457589	43.91801778787953	64.740157788535	0	0
10.05999999999987	-20.2373002246993	-31.31818451345462	-9.277984431398782	0	0.9399999999999999	0	45.55885199253476	-10.01496515390336	-9.646499704517067	54.82058607808187	0.9567997249354938	0	0	0	45.55885199253476	-10.01496515390336	-9.646499704517067	54.82058607808187	0.9567997249354938	0	0	0	21.84948821839759	34.84517971507536	23.17174719484312	61.96917036799638	-14.98369668161155	9.341774714552148	119.6437710731471	-9.988049737591147	0	0	70.12643188151793	4.575601694512202	-9.7499898354646	44.47746259864126	64.43880288184248	0	0
10.07999999999987	-20.2541611433527	-31.30693418349124	-9.142744438053477	0	0.9399999999999999	0	45.55870770804917	-10.01495169890922	-9.646703796516553	54.82061719515983	0.956800268030958	0	0	0	45.55870770804917	-10.01495169890922	-9.646703796516553	54.82061719515983	0.956800268030958	0	0	0	21.80812752515496	34.82359518493268	23.12861259030626	61.90440522810496	-14.99508212266863	8.640668124815649	119.7325542407481	-9.988790982509911	0	0	69.82305409893699	4.750549100737697	-8.874044303539023	45.20471773102327	65.05964111210791	0	0
10.09999999999987	-20.18270985918436	-31.2977724794253	-9.010168796001857	0	0.9399999999999999	0	45.55830138556387	-10.01491363715087	-9.6472803479598	54.82070438765618	0.9568017898271022	0	0	0	45.55830138556387	-10.01491363715087	-9.6472803479598	54.82070438765618	0.9568017898271022	0	0	0	21.82207889886072	34.76799371772456	23.07313501357433	61.6309242671385	-14.64384004089637	8.916910794733703	119.6027795828034	-9.989409497981523	0	0	69.5756773080571	4.699163148314993	-8.35580585087699	45.89213598191668	64.42786600441309	0	0
10.11999999999987	-20.0153991624825	-31.30314030001614	-8.692228603957137	0	0.9399999999999999	0	45.55779049009789	-10.01486608738943	-9.648002430542036	54.82081451181118	0.9568037118561928	0	0	0	45.55779049009789	-10.01486608738943	-9.648002430542036	54.82081451181118	0.9568037118561928	0	0	0	21.83748451888331	34.61542168964446	22.88785783538867	61.53717626087257	-14.49084261756265	9.07532437692163	119.7356566215499	-9.989742463685989	0	0	69.48023005759488	4.817719367580017	-8.554149763205496	46.07868485917774	67.8490054982977	0	0
10.13999999999987	-19.94640760640053	-31.33138286216867	-8.58844427030537	0	0.9399999999999999	0	45.55726338766063	-10.01481699565386	-9.648748041335661	54.82092784268909	0.9568056898531567	0	0	0	45.55726338766063	-10.01481699565386	-9.648748041335661	54.82092784268909	0.9568056898531567	0	0	0	21.86950783887327	34.53643853633407	22.88117721744588	61.01674589149537	-14.74352126569937	10.42447069544984	120.9077298411851	-9.989657552703717	0	0	69.43693029858689	5.103323045998049	-8.737505313960282	45.88121137928955	70.4905819800274	0	0
10.15999999999987	-19.8326109069271	-31.3673560983924	-8.36059160221429	0	0.9399999999999999	0	45.55687403406487	-10.0147810823413	-9.649295444709088	54.82101220048391	0.9568071621744259	0	0	0	45.55687403406487	-10.0147810823413	-9.649295444709088	54.82101220048391	0.9568071621744259	0	0	0	21.88686231060925	34.40299156622257	22.77252875539786	60.738016114379	-14.90250094649477	10.45458194701508	121.8187406915575	-9.98995337349187	0	0	69.43007134078888	5.212466839350853	-8.626188015596874	46.09367650028972	72.43208084071921	0	0
10.17999999999987	-19.73517887695136	-31.35766823751412	-8.129037518378571	0	0.9399999999999999	0	45.55636014552272	-10.01473353419416	-9.650019696508625	54.82112301084269	0.956809096180032	0	0	0	45.55636014552272	-10.01473353419416	-9.650019696508625	54.82112301084269	0.956809096180032	0	0	0	21.87465696851356	34.29551492931638	22.63739880604096	60.73093765888805	-14.90243385257958	10.18263592928852	121.6909739556618	-9.99006205125173	0	0	69.53318665116184	5.25657595535771	-8.59769684670233	46.01664229122913	75.081140835724	0	0
10.19999999999987	-19.3734244280551	-31.31093746967612	-7.413564999202183	0	0.9399999999999999	0	45.55529712839024	-10.01463576506105	-9.651513580677484	54.82135225504626	0.9568130972461755	0	0	0	45.55529712839024	-10.01463576506105	-9.651513580677484	54.82135225504626	0.9568130972461755	0	0	0	21.87962106726566	33.98772369498678	22.15162246955858	60.79058800105088	-14.8014532787507	9.947917919618138	121.2510939922608	-9.990145184802614	0	0	69.75012252507634	5.204048311194729	-8.731223772827573	45.08244757554603	84.11753337860041	0	0
10.21999999999987	-18.99418649416212	-31.26687779897966	-6.690141192265937	0	0.9399999999999999	0	45.55483793422129	-10.01459365834016	-9.652157646893038	54.82145154583126	0.9568148301972905	0	0	0	45.55483793422129	-10.01459365834016	-9.652157646893038	54.82145154583126	0.9568148301972905	0	0	0	21.92629228825555	33.73045591041136	21.66979194011549	60.79512563012921	-14.71437384266726	9.837025203009748	120.3802301438587	-9.990347747875376	0	0	69.73512253093564	5.106687879959239	-9.044529485886091	44.21348053102779	92.61871889278711	0	0
10.23999999999987	-18.22206401621006	-30.49193789638806	-5.621297867575872	0	0.9399999999999999	0	45.53420812530973	-10.01307044014126	-9.677658202626745	54.82642391670531	0.9569016144406729	0	0	0	45.53420812530973	-10.01307044014126	-9.677658202626745	54.82642391670531	0.9569016144406729	0	0	0	21.59433589070887	32.71122847097217	21.3069427010639	60.55297114717848	-13.76629442857361	9.998524671894957	117.8065391702433	-9.991029908836847	0	0	70.15009987368022	5.140689052659395	-7.918394152303401	43.6974827318725	100.2510663947096	0	0
10.25999999999987	-18.16188632026926	-30.47912263292603	-5.524080686935855	0	0.9399999999999999	0	45.53382442894501	-10.01303769535919	-9.678176490573215	54.82650753859986	0.9569030739180595	0	0	0	45.53382442894501	-10.01303769535919	-9.678176490573215	54.82650753859986	0.9569030739180595	0	0	0	21.60941364643251	32.66419095459609	21.2634976035897	60.44906152754136	-13.49474770333984	9.973589839260605	116.5690568492292	-9.991273404436537	0	0	70.3900069293952	5.237657254131222	-6.702706559633685	43.91918775617638	99.21124885010157	0	0
10.27999999999987	-17.52923624001279	-29.7951854588008	-4.700645681180234	0	0.9399999999999999	0	45.51578937095945	-10.01173775538962	-9.700303721903941	54.83080567517909	0.9569780905530676	0	0	0	45.51578937095945	-10.01173775538962	-9.700303721903941	54.83080567517909	0.9569780905530676	0	0	0	21.30378058735283	31.7745092978146	21.04754763944453	60.42166880511775	-13.47871868515634	9.826997043313673	115.7008310197863	-9.991476073425959	0	0	70.36019241423072	5.038096469627346	-5.448290666034427	43.42660797421886	105.609661677501	0	0
10.29999999999987	-17.49821134460538	-29.81914885709297	-4.63852916666784	0	0.9399999999999999	0	45.51544741060816	-10.0117109725834	-9.70074456446604	54.8308818933724	0.9569794208114908	0	0	0	45.51544741060816	-10.0117109725834	-9.70074456446604	54.8308818933724	0.9569794208114908	0	0	0	21.29747951518915	31.70027308796034	21.01377396000588	60.60541026922419	-13.64707967743729	9.665276580084216	115.4500001677927	-9.991345988972995	0	0	70.54073537081774	5.132952138365748	-5.375369534390212	42.57934737708251	107.8447753568824	0	0
10.31999999999987	-17.54647211244241	-29.83962364021215	-4.697624606256759	0	0.9399999999999999	0	45.51525170763521	-10.01169572781309	-9.700995994814672	54.83092569766379	0.956980185340602	0	0	0	45.51525170763521	-10.01169572781309	-9.700995994814672	54.83092569766379	0.956980185340602	0	0	0	21.26315145320558	31.68342136620224	21.04984373071695	60.81337007598018	-13.52330646756261	9.664568175259431	114.9517765325231	-9.991397383913915	0	0	70.79028260912408	5.228356186151786	-5.573705336081862	42.28828550765895	108.0605004355586	0	0
10.33999999999987	-17.44679399943402	-29.82221533109121	-4.524380766661304	0	0.9399999999999999	0	45.5149300258918	-10.01167027721586	-9.701413682849404	54.83099654907765	0.9569814219310536	0	0	0	45.5149300258918	-10.01167027721586	-9.701413682849404	54.83099654907765	0.9569814219310536	0	0	0	21.25345833998594	31.59711207814971	20.89113015028996	60.69686857572529	-13.17323639170103	9.811268214186295	113.7716812854183	-9.991503115790367	0	0	70.87890930218079	5.163286322495781	-5.279102619115372	42.0037006485864	109.8385156815981	0	0
